<?xml version="1.0" encoding="UTF-8" standalone="no"?>
<!-- Created with Inkscape (http://www.inkscape.org/) -->

<svg
   xmlns:dc="http://purl.org/dc/elements/1.1/"
   xmlns:cc="http://creativecommons.org/ns#"
   xmlns:rdf="http://www.w3.org/1999/02/22-rdf-syntax-ns#"
   xmlns:svg="http://www.w3.org/2000/svg"
   xmlns="http://www.w3.org/2000/svg"
   version="1.1"
   width="96.124001"
   height="96.123001"
   viewBox="0 0 96.124 96.123"
   id="Capa_1"
   xml:space="preserve"><metadata
     id="metadata3100"><rdf:RDF><cc:Work
         rdf:about=""><dc:format>image/svg+xml</dc:format><dc:type
           rdf:resource="http://purl.org/dc/dcmitype/StillImage" /><dc:title></dc:title></cc:Work></rdf:RDF></metadata><defs
     id="defs3098" /><g
     id="g3062"
     style="fill:#325765;fill-opacity:1"><path
       d="M 72.089,0.02 59.624,0 C 45.62,0 36.57,9.285 36.57,23.656 V 34.563 H 24.037 c -1.083,0 -1.96,0.878 -1.96,1.961 v 15.803 c 0,1.083 0.878,1.96 1.96,1.96 H 36.57 v 39.876 c 0,1.083 0.877,1.96 1.96,1.96 h 16.352 c 1.083,0 1.96,-0.878 1.96,-1.96 V 54.287 h 14.654 c 1.083,0 1.96,-0.877 1.96,-1.96 l 0.006,-15.803 c 0,-0.52 -0.207,-1.018 -0.574,-1.386 -0.367,-0.368 -0.867,-0.575 -1.387,-0.575 H 56.842 v -9.246 c 0,-4.444 1.059,-6.7 6.848,-6.7 l 8.397,-0.003 c 1.082,0 1.959,-0.878 1.959,-1.96 V 1.98 c 0,-1.081 -0.876,-1.958 -1.957,-1.96 z"
       id="path3064"
       style="fill:#325765;fill-opacity:1" /></g><g
     id="g3066" /><g
     id="g3068" /><g
     id="g3070" /><g
     id="g3072" /><g
     id="g3074" /><g
     id="g3076" /><g
     id="g3078" /><g
     id="g3080" /><g
     id="g3082" /><g
     id="g3084" /><g
     id="g3086" /><g
     id="g3088" /><g
     id="g3090" /><g
     id="g3092" /><g
     id="g3094" /></svg>