<?xml version="1.0" encoding="utf-8"?>
<!-- Generator: Adobe Illustrator 18.0.0, SVG Export Plug-In . SVG Version: 6.00 Build 0)  -->
<!DOCTYPE svg PUBLIC "-//W3C//DTD SVG 1.1//EN" "http://www.w3.org/Graphics/SVG/1.1/DTD/svg11.dtd">
<svg version="1.1" xmlns="http://www.w3.org/2000/svg" xmlns:xlink="http://www.w3.org/1999/xlink" x="0px" y="0px"
	 viewBox="0 0 940 1199.6" enable-background="new 0 0 940 1199.6" xml:space="preserve">
<g id="Layer_1">
	<g>
		<g>
			<path fill="#FFFFFF" d="M264.4,380.1l0,15l-34,0.1l0.2,64.1l-16.5,0.1l-0.5-148l58.8-0.2l0,15l-42.3,0.1l0.2,53.9L264.4,380.1z"
				/>
			<path fill="#FFFFFF" d="M316.8,311c23.3-0.1,33,11.7,33.1,33.7l0,12.1c0.1,16.3-5.6,26.4-18.3,30.5c13.5,4,18.7,15,18.7,30.8
				l0.1,23c0,6.6,0.3,12.7,3,17.8l-16.7,0.1c-1.9-4.2-2.8-8-2.8-18l-0.1-23.3c-0.1-16.7-7.9-22-21.6-21.9l-11.6,0l0.2,63.2
				l-16.5,0.1l-0.5-148L316.8,311z M312.8,380.8c13.1,0,20.9-4.3,20.9-20.4l0-14.2c0-13.3-4.9-20.3-17.2-20.2l-16.1,0.1l0.2,54.8
				L312.8,380.8z"/>
			<path fill="#FFFFFF" d="M364.3,346.6c-0.1-22.6,11.1-37.2,33.7-37.3c22.8-0.1,34.1,14.5,34.2,37.1l0.2,76.5
				c0.1,22.4-11.1,37.2-33.9,37.3c-22.6,0.1-33.9-14.7-33.9-37.1L364.3,346.6z M380.8,424c0,13.5,5.8,21.3,17.6,21.3
				c12.1,0,17.5-7.9,17.5-21.4l-0.2-78.2c0-13.3-5.6-21.3-17.6-21.3c-11.8,0-17.5,8.1-17.5,21.4L380.8,424z"/>
			<path fill="#FFFFFF" d="M461,458.6l-14.8,0l-0.5-148l20.9-0.1l34.6,106.9l-0.3-107l14.6,0l0.5,148l-17.1,0.1l-38.2-119.6
				L461,458.6z"/>
			<path fill="#FFFFFF" d="M552.6,458.3l-0.4-133l-27.3,0.1l0-15l70.8-0.2l0,15l-27.3,0.1l0.4,133L552.6,458.3z"/>
			<path fill="#FFFFFF" d="M645.1,310l0.5,148l-16.5,0.1l-0.5-148L645.1,310z"/>
			<path fill="#FFFFFF" d="M671.6,457.9l-14.8,0l-0.5-148l20.9-0.1l34.6,106.9l-0.3-107l14.6,0l0.5,148l-17.1,0.1l-38.2-119.6
				L671.6,457.9z"/>
		</g>
		<g>
			<path fill="#F58039" d="M631.5,1013c-2.1-26.4-4.5-52.7-6.2-79.1c-1-15.3-0.5-15.3-14.7-18.7c-0.5-0.1-0.8-0.6-1.8-1.3
				c0-7.3,0-15-0.1-23c-9.5-1.7-18.5-3.3-27.5-4.8c-3.7-0.6-6.5-1.4-6.6-6.2c-0.3-12.4-1-24.8-1.7-37.2c-0.2-3.7-0.4-7.5-0.6-11.2
				l-200.4,0.6c-1.1,16.5-2.2,32.9-3.4,49.4c-0.1,1.9-3.2,4.6-5.3,5.2c-10.3,2.9-20.8,5.2-31.8,7.9c0,4.9,0.1,9.9,0,14.9
				c-0.1,5.7-1.7,10.1-8.7,10c-6.1-0.1-8.2,3.6-8.6,9.2c-1.6,21.8-3.2,43.6-5,65.3c-2.3,27.7-5,55.3-7.3,83
				c-0.9,10.2-1.4,20.5-2,30.7c113-0.4,226.1-0.7,339.1-1.1c-0.6-7-1.2-14-1.7-21C635.1,1061.5,633.4,1037.3,631.5,1013z"/>
			<path fill="#F58039" d="M812,234.2c0.6-1.7,1.3-3.7,2.1-5.9c-1.1-0.5-1.7-1-2.4-1.1c-18.3-1.6-36.5-3.2-52.6,8.6
				c-1.3,1-3.5,1.1-5.3,1.1c-11.5,0.1-23,0.6-34.5,0.1c-15-0.7-30-2.4-45-3.5c-4.5-0.3-9,0.1-13.6,0.2c-1.3,0-2.9,0.8-4,0.3
				c-9-3.5-14.2-5.6-27.4-9.4c-4.1-1.2-18.8-1.7-24.4-2.4c-14.3-1.7-26.6-12.2-42-14.7c-1.7-0.3-4.7-0.9-7.3-1.7
				c-0.7-0.2-1.5-0.4-2.3-0.5c-11.2-2.5-23.1-2.4-34.7-2.8c-5.7-0.2-7.5-2.2-7.8-7.5c-1.5-27.6,3.2-55.8-8.5-82.2
				c-1.8-4.1-3.8-9.1-7.3-11.5c-9.8-6.9-20.5-6.7-32.3-3.5c-13.7,3.7-15.6,15.9-18.1,25.3c-4.3,16.8-4.8,34.6-6.8,51.9
				c-1.1,9.2-2,18.5-3,27.3c-19.4,3.2-37.6,6.3-57,9.5c-15.5,0.6-31.4,5.2-44.2,11.6c-5.4-1.2-8.8-2.8-11.8-2.3
				c-4.4,0.7-9.4,2-12.6,4.8c-8,7.2-18.4,6.1-27.4,9.6c-1.1,0.4-2.6-0.3-4-0.3c-4.5-0.1-9.1-0.4-13.6-0.1c-15,1.2-30,2.9-45,3.8
				c-11.5,0.6-23,0.2-34.5,0.2c-1.8,0-4-0.1-5.3-1.1c-16.2-11.8-34.4-10-52.7-8.3c-0.7,0.1-1.3,0.6-2.4,1.1c0.8,2.2,1.5,4.2,2.2,5.8
				c-10.6,1.7-20.7,3.3-31,4.9l0,13.6c4.4,1.2,8.6,2.7,12.9,3.5c20.7,3.7,41.3,7.2,62.6,3.6c6.2-1,12.9,0.2,19.2,1.4
				c2.2,0.4,4.1,3.6,5.6,5.9c5.6,8.3,11,16.7,16.5,25.1l513.7-1.6c5.5-8.5,11-17,16.5-25.4c1.5-2.3,3.4-5.5,5.6-5.9
				c6.3-1.2,13-2.5,19.2-1.5c21.3,3.4,41.9-0.1,62.6-4c4.3-0.8,8.5-2.4,12.9-3.6l0-13.6C832.7,237.3,822.6,235.8,812,234.2z"/>
		</g>
		<g>
			<path fill="#FFFFFF" d="M382.4,475.1c35.8-0.1,50.8,18.1,50.9,51.9l0.1,18.6c0.1,25.1-8.7,40.7-28.2,47
				c20.8,6.1,28.7,23,28.8,47.4l0.1,35.5c0,10.1,0.4,19.5,4.6,27.3l-25.7,0.1c-2.9-6.5-4.3-12.4-4.3-27.6l-0.1-35.8
				c-0.1-25.7-12.1-33.8-33.3-33.7l-17.9,0.1l0.3,97.3l-25.4,0.1l-0.7-227.8L382.4,475.1z M376.2,582.5c20.2-0.1,32.2-6.6,32.1-31.3
				l-0.1-21.8c-0.1-20.5-7.6-31.2-26.5-31.2l-24.7,0.1l0.3,84.3L376.2,582.5z"/>
			<path fill="#FFFFFF" d="M481.6,474.8l0.7,227.8l-25.4,0.1l-0.7-227.8L481.6,474.8z"/>
			<path fill="#FFFFFF" d="M502.3,529.7c-0.1-34.8,17.1-57.3,51.9-57.4c35.1-0.1,52.5,22.3,52.6,57.1l0.4,117.8
				c0.1,34.5-17.1,57.3-52.2,57.4c-34.8,0.1-52.1-22.6-52.3-57.1L502.3,529.7z M527.7,648.8c0.1,20.8,8.9,32.8,27.1,32.8
				c18.6-0.1,27-12.1,26.9-33l-0.4-120.4c-0.1-20.5-8.6-32.8-27.1-32.8c-18.2,0.1-27,12.5-26.9,33L527.7,648.8z"/>
		</g>
		<g>
			<path fill="#00908D" d="M420.8,740.9c0.1,32.4-36.2,44.1-36.3,68.8l0,1.7l35.3-0.1l0,10.9l-47.1,0.1l0-9.2
				c-0.1-34.7,36.2-41.5,36.1-71.8c0-11-3.7-16.9-12.6-16.8c-8.7,0-12.6,6.3-12.5,15.8l0,9.5l-11.2,0l0-8.7
				c-0.1-16.4,7.4-27.3,24-27.4C413.2,713.8,420.7,724.5,420.8,740.9z"/>
			<path fill="#00908D" d="M427.1,740.8c-0.1-16.4,8-27,24.5-27.1c16.6-0.1,24.7,10.5,24.8,26.9l0.2,55.4c0.1,16.4-8,27.2-24.6,27.2
				c-16.4,0.1-24.6-10.7-24.6-27.1L427.1,740.8z M439,796.9c0,9.7,4.2,15.5,12.8,15.5c8.7,0,12.7-5.9,12.7-15.5l-0.2-56.8
				c0-9.8-4-15.6-12.8-15.6c-8.6,0-12.7,5.9-12.7,15.7L439,796.9z"/>
			<path fill="#00908D" d="M498.1,734.1c-4,2.5-9.2,4.3-14.9,4.6l0-9.8c11.7-0.5,15.6-6.8,18.4-14.3l8.3,0l0.3,107.4l-11.8,0
				L498.1,734.1z"/>
			<path fill="#00908D" d="M536.2,758.2c3.4-5.8,8.7-8.9,15.9-8.9c13.8,0,20,10.1,20,25.4l0.1,21c0.1,16.4-7.7,27.2-24.2,27.2
				c-16.4,0.1-24.1-10.7-24.2-27.1l0-7.2l11.2,0l0,8c0,9.7,4,15.5,12.6,15.5c8.6,0,12.6-5.9,12.5-15.5l-0.1-20.9
				c0-9.7-4-15.5-12.6-15.5c-6.6,0-11,3.7-12.1,11.5l0,2.5l-11.2,0l2.7-59.7l42.3-0.1l0,10.7l-31.6,0.1L536.2,758.2z"/>
		</g>
	</g>
	<g>
		<path fill="#F58039" d="M932.2,1196H7.3V5.6h924.9V1196z M26.5,1176.8H913V24.8H26.5V1176.8z"/>
	</g>
</g>
<g id="Layer_2">
</g>
</svg>
